<svg width="27" height="19" viewBox="0 0 27 19" fill="none" xmlns="http://www.w3.org/2000/svg">
<path fill-rule="evenodd" clip-rule="evenodd" d="M24.5387 0.611328C24.3013 2.25587 23.7387 3.81893 22.905 5.25628C22.9675 5.61214 22.9996 5.97186 22.9996 6.33312C22.9996 7.58782 22.636 8.78863 21.9626 9.87964C21.6264 10.4242 21.5399 11.0623 21.5067 11.4839C21.4685 11.9671 21.4814 12.4958 21.5159 13.0037C21.5546 13.5735 21.6246 14.1717 21.7048 14.736C21.0543 14.5463 20.3492 14.3558 19.6763 14.204C19.1166 14.0777 18.5439 13.9701 18.0252 13.9165C17.5727 13.8698 16.9188 13.8336 16.3341 14.0226C15.0556 14.4359 13.6488 14.6665 12.1662 14.6665C10.403 14.6665 8.78371 14.3535 7.3643 13.8098C7.02289 13.8253 6.67899 13.8331 6.33285 13.8331C4.32516 13.8331 2.39285 13.5691 0.584961 13.0811C3.21322 16.1209 7.54601 17.9998 12.1662 17.9998C13.9711 17.9998 15.7034 17.7227 17.2999 17.2135C17.3027 17.2136 17.3078 17.2135 17.3153 17.2133C17.3563 17.2125 17.4701 17.2103 17.6827 17.2322C18.017 17.2667 18.4469 17.3438 18.9428 17.4556C19.9301 17.6783 21.0395 18.007 21.9041 18.2814C23.7377 18.8635 25.5143 17.2634 25.1866 15.4027C25.0456 14.6019 24.899 13.6245 24.8415 12.7778C24.8126 12.3521 24.8094 12.0026 24.8297 11.7462C24.8381 11.6399 24.8488 11.5733 24.8556 11.5379C25.7933 9.98456 26.3329 8.216 26.3329 6.33312C26.3329 4.21054 25.6736 2.27226 24.5387 0.611328Z" fill="#FF5A30"/>
</svg>
